<svg width="16" height="16" fill="none" xmlns="http://www.w3.org/2000/svg"><path d="M16 8.182c0-.545-.046-1.089-.14-1.626H8.162v3.08h4.409a3.66 3.66 0 0 1-.562 1.38c-.28.418-.643.775-1.068 1.052v2h2.63C15.113 12.676 16 10.617 16 8.182Z" fill="#4285F4"/><path d="M8.162 16c2.203 0 4.057-.709 5.41-1.931l-2.631-2c-.733.487-1.676.764-2.779.764-2.129 0-3.936-1.406-4.582-3.302H.87v2.061a8.062 8.062 0 0 0 3.008 3.217A8.287 8.287 0 0 0 8.162 16Z" fill="#34A853"/><path d="M3.58 9.531a4.703 4.703 0 0 1 0-3.062V4.41H.87A7.87 7.87 0 0 0 0 8a7.87 7.87 0 0 0 .87 3.592l2.71-2.06Z" fill="#FBBC04"/><path d="M8.162 3.167a4.481 4.481 0 0 1 3.131 1.2l2.33-2.283A7.931 7.931 0 0 0 8.162 0a8.286 8.286 0 0 0-4.284 1.19A8.062 8.062 0 0 0 .87 4.408L3.58 6.47c.647-1.895 2.454-3.302 4.583-3.302Z" fill="#EA4335"/></svg>