<svg width="188" height="50" viewBox="0 0 188 50" fill="none" xmlns="http://www.w3.org/2000/svg">
<g clip-path="url(#clip0_1740_1090)">
<path d="M66.3826 16.5295C69.3443 16.5295 71.9996 17.9668 73.4294 20.2256L70.1613 22.0736C69.3443 20.9443 68.0167 20.1229 66.3826 20.1229C63.7274 20.1229 61.8891 22.1763 61.8891 24.8457C61.8891 26.2831 62.2976 27.3098 63.1146 28.3365C64.0337 29.2605 65.055 29.6712 66.3826 29.6712C68.0167 29.6712 69.3443 28.9525 70.1613 27.7204L73.4294 29.6712C71.9996 31.9299 69.4464 33.3673 66.3826 33.3673C61.6848 33.4699 57.9062 29.6712 58.0083 25.051C57.9062 20.2256 61.5827 16.5295 66.3826 16.5295Z" fill="#292F52"/>
<path d="M83.9483 16.5295C88.7482 16.5295 92.3226 20.1229 92.3226 24.8457C92.3226 29.5685 88.7482 33.1619 83.9483 33.1619C79.2505 33.2646 75.4718 29.4658 75.5739 24.8457C75.4718 20.2256 79.2505 16.5295 83.9483 16.5295ZM83.9483 20.1229C81.293 20.1229 79.4547 22.1763 79.4547 24.8457C79.4547 26.2831 79.8632 27.3098 80.6802 28.3365C81.5994 29.1578 82.6206 29.6712 83.9483 29.6712C85.378 29.6712 86.3993 29.2605 87.2163 28.3365C88.1354 27.4124 88.544 26.2831 88.544 24.8457C88.544 22.1763 86.7057 20.1229 83.9483 20.1229Z" fill="#292F52"/>
<path d="M97.7356 27.7204C98.5526 29.0551 100.289 29.9791 102.331 29.9791C104.272 29.9791 105.804 29.3631 105.804 28.4391C105.804 27.5151 105.191 27.1044 102.74 26.4884L100.391 25.975C97.1228 25.2563 95.4888 23.819 95.4888 21.4576C95.4888 18.4801 98.3483 16.4268 102.331 16.4268C103.863 16.4268 105.293 16.7348 106.518 17.4535C107.744 18.1721 108.663 18.8908 109.276 19.9175L106.314 21.5602C105.599 20.4309 103.863 19.6095 102.127 19.6095C100.391 19.6095 99.1653 20.2255 99.1653 21.1496C99.1653 22.0736 99.7781 22.4843 102.229 22.9976L104.578 23.5109C107.846 24.2296 109.48 25.667 109.48 28.0284C109.48 31.0058 106.314 33.0592 102.127 33.0592C100.391 33.0592 98.8589 32.6485 97.5313 31.9298C96.2037 31.2112 95.1824 30.2871 94.5696 29.2604L97.7356 27.7204Z" fill="#292F52"/>
<path d="M138.484 32.8538H134.501V24.2296C134.501 21.5602 133.378 20.1228 131.335 20.1228C129.293 20.1228 127.761 21.9708 127.761 24.6402V32.9565H123.778V24.3322C123.778 21.6628 122.654 20.2254 120.612 20.2254C119.591 20.2254 118.671 20.6361 118.059 21.4575C117.446 22.3815 117.037 23.4082 117.037 24.6402V32.9565H113.055V17.0427H117.037V19.3014C117.957 17.6587 119.591 16.632 121.531 16.632C123.982 16.632 125.82 17.7614 126.842 19.7121C127.863 17.7614 129.701 16.632 132.152 16.632C136.033 16.632 138.382 19.3014 138.382 23.9215V32.8538H138.484Z" fill="#292F52"/>
<path d="M144.816 10.0613C146.246 10.0613 147.267 11.088 147.267 12.5254C147.267 13.9628 146.246 14.9895 144.816 14.9895C143.386 14.9895 142.365 13.9628 142.365 12.5254C142.365 11.088 143.386 10.0613 144.816 10.0613ZM146.859 32.8539H142.876V17.0429H146.859V32.8539Z" fill="#292F52"/>
<path d="M167.283 17.0431V32.8542H163.3V30.6981C162.279 32.4435 160.339 33.3675 158.194 33.3675C153.803 33.3675 150.535 29.6714 150.535 25.0513C150.433 20.4312 153.803 16.6324 158.194 16.7351C160.339 16.7351 162.279 17.6591 163.3 19.4045V17.2484H167.283V17.0431ZM158.705 20.1232C157.377 20.1232 156.254 20.5338 155.437 21.5605C154.62 22.4846 154.211 23.6139 154.211 25.0513C154.211 27.7207 156.049 29.8768 158.705 29.8768C161.36 29.8768 163.198 27.926 163.198 25.0513C163.198 21.9712 161.36 20.1232 158.705 20.1232Z" fill="#292F52"/>
<path d="M187.197 32.8538H183.214V24.2296C183.214 21.5602 181.989 20.1228 179.64 20.1228C177.291 20.1228 175.555 21.8682 175.555 24.5376V32.8538H171.572V17.0427H175.555V19.3014C176.474 17.6587 178.21 16.632 180.559 16.632C184.644 16.632 187.197 19.3014 187.197 23.9215V32.8538Z" fill="#292F52"/>
<path d="M33.9752 50H16.6749C12.2978 50 8.65012 46.4066 8.65012 42.0945C8.65012 41.7864 8.33747 41.4784 8.02481 41.4784C3.54342 41.4784 0 37.885 0 33.5729V16.4271C0 12.115 3.64764 8.52156 8.02481 8.52156C8.44169 8.52156 8.65012 8.21355 8.65012 7.90554C8.65012 3.59343 12.2978 0 16.6749 0H33.9752C38.3524 0 42 3.59343 42 7.90554V8.93224C42 13.2444 38.3524 16.8378 33.9752 16.8378H17.6129C17.3002 16.8378 16.9876 17.1458 16.9876 17.4538V32.4435C16.9876 32.7515 17.3002 33.0595 17.6129 33.0595H33.871C38.2481 33.0595 41.8958 36.653 41.8958 40.9651V41.9918C42 46.4066 38.4566 50 33.9752 50ZM16.6749 3.79877C14.3821 3.79877 12.6104 5.64682 12.6104 7.80287C12.6104 10.3696 10.5261 12.3203 8.02481 12.3203C5.73201 12.3203 3.9603 14.1684 3.9603 16.3244V33.3676C3.9603 35.6263 5.83623 37.3717 8.02481 37.3717C10.6303 37.3717 12.6104 39.4251 12.6104 41.8891C12.6104 44.1478 14.4864 45.8932 16.6749 45.8932H33.9752C36.268 45.8932 38.0397 44.0452 38.0397 41.8891V40.8624C38.0397 38.6037 36.1638 36.8583 33.9752 36.8583H17.6129C15.0074 36.8583 13.0273 34.8049 13.0273 32.3409V17.4538C13.0273 14.8871 15.1117 12.9363 17.6129 12.9363H33.871C36.1638 12.9363 37.9355 11.0883 37.9355 8.93224V7.90554C37.9355 5.64682 36.0595 3.90144 33.871 3.90144H16.6749V3.79877Z" fill="url(#paint0_linear_1740_1090)"/>
</g>
<defs>
<linearGradient id="paint0_linear_1740_1090" x1="15.6507" y1="14.9337" x2="90.355" y2="97.987" gradientUnits="userSpaceOnUse">
<stop stop-color="#FF8C4A"/>
<stop offset="0.1196" stop-color="#FF7A47"/>
<stop offset="0.3592" stop-color="#FF4C40"/>
<stop offset="0.6797" stop-color="#FE0534"/>
</linearGradient>
<clipPath id="clip0_1740_1090">
<rect width="188" height="50" fill="white"/>
</clipPath>
</defs>
</svg>
