<svg width="42" height="50" viewBox="0 0 42 50" fill="none" xmlns="http://www.w3.org/2000/svg">
<path d="M33.9752 50H16.6749C12.2978 50 8.65012 46.4066 8.65012 42.0945C8.65012 41.7864 8.33747 41.4784 8.02481 41.4784C3.54342 41.4784 0 37.885 0 33.5729V16.4271C0 12.115 3.64764 8.52156 8.02481 8.52156C8.44169 8.52156 8.65012 8.21355 8.65012 7.90554C8.65012 3.59343 12.2978 0 16.6749 0H33.9752C38.3524 0 42 3.59343 42 7.90554V8.93224C42 13.2444 38.3524 16.8378 33.9752 16.8378H17.6129C17.3002 16.8378 16.9876 17.1458 16.9876 17.4538V32.4435C16.9876 32.7515 17.3002 33.0595 17.6129 33.0595H33.871C38.2481 33.0595 41.8958 36.653 41.8958 40.9651V41.9918C42 46.4066 38.4566 50 33.9752 50ZM16.6749 3.79877C14.3821 3.79877 12.6104 5.64682 12.6104 7.80287C12.6104 10.3696 10.5261 12.3203 8.02481 12.3203C5.73201 12.3203 3.9603 14.1684 3.9603 16.3244V33.3676C3.9603 35.6263 5.83623 37.3717 8.02481 37.3717C10.6303 37.3717 12.6104 39.4251 12.6104 41.8891C12.6104 44.1478 14.4864 45.8932 16.6749 45.8932H33.9752C36.268 45.8932 38.0397 44.0452 38.0397 41.8891V40.8624C38.0397 38.6037 36.1638 36.8583 33.9752 36.8583H17.6129C15.0074 36.8583 13.0273 34.8049 13.0273 32.3409V17.4538C13.0273 14.8871 15.1117 12.9363 17.6129 12.9363H33.871C36.1638 12.9363 37.9355 11.0883 37.9355 8.93224V7.90554C37.9355 5.64682 36.0595 3.90144 33.871 3.90144H16.6749V3.79877Z" fill="url(#paint0_linear_1740_1093)"/>
<defs>
<linearGradient id="paint0_linear_1740_1093" x1="15.6507" y1="14.9337" x2="90.355" y2="97.987" gradientUnits="userSpaceOnUse">
<stop stop-color="#FF8C4A"/>
<stop offset="0.1196" stop-color="#FF7A47"/>
<stop offset="0.3592" stop-color="#FF4C40"/>
<stop offset="0.6797" stop-color="#FE0534"/>
</linearGradient>
</defs>
</svg>
