<svg width="42" height="50" viewBox="0 0 42 50" fill="none" xmlns="http://www.w3.org/2000/svg">
<path d="M33.738 50H16.5585C12.2119 50 8.58973 46.4066 8.58973 42.0945C8.58973 41.7864 8.27926 41.4784 7.96879 41.4784C3.51869 41.4784 0 37.885 0 33.5729V16.4271C0 12.115 3.62218 8.52156 7.96879 8.52156C8.38275 8.52156 8.58973 8.21355 8.58973 7.90554C8.58973 3.59343 12.2119 0 16.5585 0H33.738C38.0846 0 41.7068 3.59343 41.7068 7.90554V8.93224C41.7068 13.2444 38.0846 16.8378 33.738 16.8378H17.4899C17.1795 16.8378 16.869 17.1458 16.869 17.4538V32.4435C16.869 32.7515 17.1795 33.0595 17.4899 33.0595H33.6345C37.9811 33.0595 41.6033 36.653 41.6033 40.9651V41.9918C41.7068 46.4066 38.1881 50 33.738 50ZM16.5585 3.79877C14.2817 3.79877 12.5224 5.64682 12.5224 7.80287C12.5224 10.3696 10.4526 12.3203 7.96879 12.3203C5.69199 12.3203 3.93265 14.1684 3.93265 16.3244V33.3676C3.93265 35.6263 5.79548 37.3717 7.96879 37.3717C10.5561 37.3717 12.5224 39.4251 12.5224 41.8891C12.5224 44.1478 14.3852 45.8932 16.5585 45.8932H33.738C36.0148 45.8932 37.7741 44.0452 37.7741 41.8891V40.8624C37.7741 38.6037 35.9113 36.8583 33.738 36.8583H17.4899C14.9027 36.8583 12.9363 34.8049 12.9363 32.3409V17.4538C12.9363 14.8871 15.0062 12.9363 17.4899 12.9363H33.6345C35.9113 12.9363 37.6706 11.0883 37.6706 8.93224V7.90554C37.6706 5.64682 35.8078 3.90144 33.6345 3.90144H16.5585V3.79877Z" fill="white"/>
</svg>
