<svg width="32" height="32" viewBox="0 0 32 32" fill="none" xmlns="http://www.w3.org/2000/svg">
<path d="M24.0323 32H13.3226C10.6129 32 8.35484 29.7002 8.35484 26.9405C8.35484 26.7433 8.16129 26.5462 7.96774 26.5462C5.19355 26.5462 3 24.2464 3 21.4867V10.5133C3 7.75359 5.25806 5.4538 7.96774 5.4538C8.22581 5.4538 8.35484 5.25667 8.35484 5.05955C8.35484 2.29979 10.6129 0 13.3226 0H24.0323C26.7419 0 29 2.29979 29 5.05955V5.71663C29 8.47639 26.7419 10.7762 24.0323 10.7762H13.9032C13.7097 10.7762 13.5161 10.9733 13.5161 11.1704V20.7639C13.5161 20.961 13.7097 21.1581 13.9032 21.1581H23.9677C26.6774 21.1581 28.9355 23.4579 28.9355 26.2177V26.8747C29 29.7002 26.8065 32 24.0323 32ZM13.3226 2.43121C11.9032 2.43121 10.8065 3.61396 10.8065 4.99384C10.8065 6.63655 9.51613 7.88501 7.96774 7.88501C6.54839 7.88501 5.45161 9.06776 5.45161 10.4476V21.3552C5.45161 22.8008 6.6129 23.9179 7.96774 23.9179C9.58065 23.9179 10.8065 25.232 10.8065 26.809C10.8065 28.2546 11.9677 29.3717 13.3226 29.3717H24.0323C25.4516 29.3717 26.5484 28.1889 26.5484 26.809V26.152C26.5484 24.7064 25.3871 23.5893 24.0323 23.5893H13.9032C12.2903 23.5893 11.0645 22.2752 11.0645 20.6982V11.1704C11.0645 9.52772 12.3548 8.27926 13.9032 8.27926H23.9677C25.3871 8.27926 26.4839 7.09651 26.4839 5.71663V5.05955C26.4839 3.61396 25.3226 2.49692 23.9677 2.49692H13.3226V2.43121Z" fill="url(#paint0_linear_1740_1094)"/>
<defs>
<linearGradient id="paint0_linear_1740_1094" x1="12.6885" y1="9.55755" x2="60.6412" y2="61.1241" gradientUnits="userSpaceOnUse">
<stop stop-color="#FF8C4A"/>
<stop offset="0.1196" stop-color="#FF7A47"/>
<stop offset="0.3592" stop-color="#FF4C40"/>
<stop offset="0.6797" stop-color="#FE0534"/>
</linearGradient>
</defs>
</svg>
