<svg xmlns="http://www.w3.org/2000/svg" viewBox="0 0 42 50" style="enable-background:new 0 0 42 50" xml:space="preserve"><path d="M37.2 3.2c.9 0 1.6.7 1.6 1.6v6.8c0 .9-.7 1.6-1.6 1.6H14.8c-.9 0-1.6.7-1.6 1.6v20.7c0 .9.7 1.6 1.6 1.6h22.4c.9 0 1.6.7 1.6 1.6v6.8c0 .9-.7 1.6-1.6 1.6H13.3c-.9 0-1.6-.7-1.6-1.6v-5.3c0-.9-.7-1.6-1.6-1.6H4.8c-.9 0-1.6-.7-1.6-1.6V13.2c0-.9.7-1.6 1.6-1.6h5.4c.9 0 1.6-.7 1.6-1.6V4.8c0-.9.7-1.6 1.6-1.6h23.8zm0-3.2H13.3c-2.7 0-4.8 2.1-4.8 4.8v3.6H4.8C2.2 8.4 0 10.6 0 13.2v23.6c0 2.6 2.2 4.8 4.8 4.8h3.7v3.6c0 2.6 2.2 4.8 4.8 4.8h23.8c2.7 0 4.8-2.1 4.8-4.8v-6.8c0-2.6-2.2-4.8-4.8-4.8H16.5V16.3h20.7c2.7 0 4.8-2.1 4.8-4.8V4.8C42 2.1 39.8 0 37.2 0z" style="fill:#e3431a"/></svg>