<svg xmlns="http://www.w3.org/2000/svg" viewBox="0 0 234 50" style="enable-background:new 0 0 234 50" xml:space="preserve"><path d="M36.8 3.2c.9 0 1.6.7 1.6 1.6v6.8c0 .9-.7 1.6-1.6 1.6H14.6c-.9 0-1.6.7-1.6 1.6v20.7c0 .9.7 1.6 1.6 1.6h22.2c.9 0 1.6.7 1.6 1.6v6.8c0 .9-.7 1.6-1.6 1.6H13.2c-.9 0-1.6-.7-1.6-1.6v-5.3c0-.9-.7-1.6-1.6-1.6H4.8c-.9 0-1.6-.7-1.6-1.6V13.2c0-.9.7-1.6 1.6-1.6h5.3c.9 0 1.6-.7 1.6-1.6V4.8c0-.9.7-1.6 1.6-1.6h23.5zm0-3.2H13.2c-2.6 0-4.8 2.1-4.8 4.8v3.6H4.8C2.1 8.4 0 10.6 0 13.2v23.6c0 2.6 2.1 4.8 4.8 4.8h3.6v3.6c0 2.6 2.1 4.8 4.8 4.8h23.6c2.6 0 4.8-2.1 4.8-4.8v-6.8c0-2.6-2.1-4.8-4.8-4.8H16.3V16.3h20.5c2.6 0 4.8-2.1 4.8-4.8V4.8c0-2.7-2.2-4.8-4.8-4.8z" style="fill:#e3431a"/><path d="M57.5 21c.7-.4 1.6-.7 2.4-.7 1.2 0 2.3.4 3.3 1.2l.3.2 1.2-1.6-.3-.2c-1.3-1-2.8-1.6-4.6-1.6-1.2 0-2.4.3-3.5.9-1 .6-1.9 1.4-2.5 2.5-.6 1-.9 2.2-.9 3.5 0 1.3.3 2.5.9 3.5.6 1 1.5 1.9 2.5 2.5 1.1.6 2.3.9 3.6.9.8 0 1.6-.1 2.4-.4.8-.3 1.5-.7 2.1-1.2l.3-.2-1.3-1.5-.3.2c-.9.7-2 1-3.1 1-.9 0-1.8-.2-2.5-.7-.7-.4-1.3-1-1.8-1.8-.4-.8-.7-1.6-.6-2.5 0-.9.2-1.7.7-2.5.4-.5 1-1.1 1.7-1.5zm32.6-1.8c-1.1-.6-2.3-.9-3.6-.9-1.3 0-2.5.3-3.6.9-1.1.6-1.9 1.5-2.6 2.5-.6 1.1-.9 2.3-.9 3.5 0 1.3.3 2.5.9 3.6.6 1 1.5 1.9 2.5 2.5 1.1.6 2.3.9 3.6.9 1.3 0 2.5-.3 3.6-.9 1.1-.6 1.9-1.5 2.5-2.5.6-1.1.9-2.2.9-3.5 0-1.2-.3-2.4-.9-3.5-.5-1.1-1.4-2-2.4-2.6zm-3.6 11c-.9 0-1.7-.2-2.4-.7-.7-.4-1.3-1.1-1.8-1.8-.4-.8-.6-1.6-.6-2.5 0-.9.2-1.7.6-2.4.4-.8 1-1.4 1.7-1.9s1.6-.7 2.5-.7c.9 0 1.7.2 2.4.7.7.4 1.3 1.1 1.8 1.8.4.8.6 1.6.6 2.5s-.2 1.7-.6 2.5c-.4.7-1 1.4-1.8 1.8-.7.5-1.6.7-2.4.7zm30.3-4.7c-.6-.5-1.6-1-2.8-1.4-.9-.3-1.6-.7-2.1-1-.4-.3-.6-.7-.6-1.2s.2-.9.6-1.2c.5-.3 1-.5 1.5-.5s1 .1 1.5.3c.5.2.8.4 1.1.8l.3.4 1.1-1.7-.2-.2c-1-1-2.4-1.5-4-1.5-1.2 0-2.2.4-3 1-.8.7-1.2 1.6-1.2 2.8 0 1 .3 1.8.9 2.4.6.6 1.4 1 2.5 1.4l1.8.6c.3.1.6.4.9.6.2.3.4.6.4 1.1 0 .7-.2 1.2-.7 1.5-.5.3-1.1.5-1.9.5-.6 0-1.2-.1-1.7-.4-.5-.2-1-.6-1.4-1l-.3-.3-1.1 1.6.2.2c.5.6 1.2 1.1 2 1.4.8.3 1.6.4 2.5.4 1.5 0 2.6-.4 3.4-1.2.8-.8 1.2-1.8 1.2-3 .2-1-.2-1.9-.9-2.4zm36.6-5.8c-.8-.8-1.8-1.1-3.1-1.1-1.1 0-2.2.3-3.2.8-.7.4-1.3.9-1.8 1.6-.2-.6-.6-1.1-1.2-1.5-.8-.6-1.7-.9-2.8-.9-1.2 0-2.3.3-3.3.9-.6.4-1.2.9-1.6 1.4l-.1-2h-2v13.3h2.2v-7.1c0-.8.2-1.6.6-2.3.4-.7.9-1.2 1.6-1.6.7-.4 1.4-.6 2.2-.6.8 0 1.4.3 1.8.7.4.5.6 1 .7 1.7v9.2h2.2V25c0-.8.3-1.5.7-2.2.4-.7.9-1.2 1.6-1.6.6-.4 1.4-.6 2.1-.6.8 0 1.4.3 1.8.7.4.5.6 1 .7 1.7v9.2h2.2v-9.5c-.1-1.3-.6-2.3-1.3-3zm21-.8h-2.2v13.3h2.2V18.9zm-1.1-5.9c-.4 0-.7.1-1 .4-.3.3-.5.6-.5 1s.1.7.4 1c.3.3.6.4 1 .4s.7-.1 1-.4c.3-.3.4-.6.4-1s-.1-.7-.4-1c-.1-.3-.5-.4-.9-.4zm29.5 7.7c-.5-.6-1-1.1-1.7-1.5-1-.6-2.1-.9-3.1-.9-1.4 0-2.6.3-3.7.8s-2 1.4-2.6 2.4c-.6 1-.9 2.3-.9 3.7 0 1.3.3 2.6.9 3.6.6 1 1.4 1.9 2.5 2.5 1 .6 2.2.9 3.4.9 1.2 0 2.4-.3 3.5-.9.7-.4 1.3-.8 1.7-1.3v2h2.2V18.7h-2l-.2 2zm-4.9-.4c1.2 0 2.2.4 3.2 1.1.9.7 1.5 1.6 1.7 2.7v1.8c-.1 1.3-.6 2.3-1.5 3.1-.9.8-2.1 1.2-3.4 1.2-.9 0-1.7-.2-2.4-.7-.7-.4-1.4-1.1-1.8-1.8-.4-.8-.7-1.6-.7-2.5 0-1 .2-1.9.6-2.6.4-.7 1-1.3 1.7-1.7.8-.4 1.7-.6 2.6-.6zM234 32.2v-9.5c0-1.2-.5-2.2-1.3-3-.8-.8-1.8-1.1-3.1-1.1-1.2 0-2.4.3-3.4.9-.6.4-1.2.8-1.6 1.4l-.1-1.9h-2v13.3h2.2v-7.1c0-.9.2-1.7.6-2.3.4-.7.9-1.2 1.6-1.6.7-.4 1.4-.6 2.2-.6.8 0 1.4.2 1.9.7.4.5.7 1.1.7 1.8v9.1c.1-.1 2.3-.1 2.3-.1z" style="fill:#fff"/></svg>