<svg width="234" height="50" fill="none" xmlns="http://www.w3.org/2000/svg"><path d="M36.806 3.218c.863 0 1.555.7 1.555 1.553v6.752c0 .862-.7 1.553-1.555 1.553H14.65c-.863 0-1.555.7-1.555 1.554v20.706c0 .862.7 1.554 1.555 1.554h22.157c.863 0 1.555.7 1.555 1.553v6.752c0 .862-.7 1.553-1.555 1.553h-23.6c-.863 0-1.555-.7-1.555-1.553v-5.31c0-.861-.7-1.553-1.555-1.553H4.783c-.862 0-1.554-.7-1.554-1.553V13.196c0-.862.7-1.554 1.554-1.554h5.313c.863 0 1.555-.7 1.555-1.553v-5.31c0-.861.7-1.553 1.555-1.553h23.6v-.008Zm0-3.218h-23.6a4.785 4.785 0 0 0-4.784 4.78v3.644H4.783A4.785 4.785 0 0 0 0 13.204v23.592a4.785 4.785 0 0 0 4.783 4.78h3.648v3.644A4.785 4.785 0 0 0 13.214 50h23.61a4.785 4.785 0 0 0 4.783-4.78V38.47a4.785 4.785 0 0 0-4.784-4.78H16.315V16.302h20.491a4.785 4.785 0 0 0 4.784-4.78V4.78A4.785 4.785 0 0 0 36.806 0Z" fill="#E3431A"/><path d="M57.52 20.988a4.6 4.6 0 0 1 2.409-.657c1.178 0 2.28.401 3.288 1.178l.282.213 1.23-1.579-.265-.221c-1.264-1.033-2.819-1.563-4.63-1.563-1.238 0-2.4.3-3.45.897a6.762 6.762 0 0 0-2.529 2.475c-.614 1.05-.93 2.236-.93 3.542 0 1.297.307 2.492.913 3.534a6.522 6.522 0 0 0 2.529 2.475c1.067.598 2.28.896 3.596.896.811 0 1.606-.136 2.383-.4a6.88 6.88 0 0 0 2.084-1.153l.29-.23-1.298-1.452-.256.197c-.94.7-1.982 1.05-3.1 1.05-.923 0-1.76-.222-2.503-.658a4.853 4.853 0 0 1-1.769-1.784 4.912 4.912 0 0 1-.649-2.475c0-.896.214-1.732.65-2.492.41-.743.999-1.349 1.725-1.793ZM90.072 19.179c-1.076-.615-2.28-.93-3.587-.93a7.159 7.159 0 0 0-3.588.93 6.826 6.826 0 0 0-2.554 2.543 6.838 6.838 0 0 0-.93 3.5c0 1.323.307 2.526.913 3.585a6.566 6.566 0 0 0 2.529 2.492c1.067.598 2.28.896 3.596.896 1.324 0 2.537-.316 3.604-.93a6.9 6.9 0 0 0 2.537-2.518c.624-1.058.931-2.245.931-3.517a6.995 6.995 0 0 0-.914-3.499 6.683 6.683 0 0 0-2.537-2.552Zm-3.621 11.019a4.703 4.703 0 0 1-2.426-.657 4.794 4.794 0 0 1-1.751-1.801 5.015 5.015 0 0 1-.64-2.492c0-.854.213-1.673.631-2.433a5.104 5.104 0 0 1 1.743-1.852c.734-.461 1.554-.7 2.451-.7.871 0 1.691.222 2.426.657a4.817 4.817 0 0 1 1.751 1.81c.427.768.64 1.613.64 2.509 0 .896-.213 1.733-.64 2.492a4.793 4.793 0 0 1-1.751 1.801 4.583 4.583 0 0 1-2.434.666ZM116.799 25.504c-.649-.504-1.597-.965-2.801-1.358-.931-.332-1.623-.657-2.068-.973-.375-.264-.555-.657-.555-1.203 0-.52.205-.913.632-1.203.47-.316.974-.47 1.538-.47.495.017.999.12 1.486.299.461.17.829.435 1.111.81l.307.41 1.102-1.732-.205-.197c-1.025-1.007-2.383-1.51-4.015-1.51-1.196 0-2.203.35-2.981 1.032-.794.7-1.196 1.622-1.196 2.757 0 .973.308 1.767.931 2.356.581.563 1.41 1.024 2.469 1.383a25.94 25.94 0 0 1 1.836.648c.334.137.641.359.906.65.239.264.359.622.359 1.1 0 .674-.222 1.152-.684 1.46-.495.333-1.119.503-1.862.503a4.35 4.35 0 0 1-1.725-.367 4.509 4.509 0 0 1-1.435-.998l-.299-.308-1.111 1.562.171.205c.513.623 1.188 1.093 1.999 1.392a7.22 7.22 0 0 0 2.486.435c1.477 0 2.639-.393 3.442-1.161.811-.777 1.221-1.801 1.221-3.047.017-1.093-.341-1.93-1.059-2.475ZM153.366 19.7c-.777-.752-1.811-1.127-3.075-1.127a6.318 6.318 0 0 0-3.152.82 5.589 5.589 0 0 0-1.802 1.595c-.239-.588-.641-1.1-1.204-1.519-.786-.589-1.734-.888-2.819-.888-1.17 0-2.272.3-3.272.888a5.67 5.67 0 0 0-1.64 1.434l-.093-1.963h-2.008v13.272h2.221v-7.118c0-.811.205-1.58.598-2.27a4.418 4.418 0 0 1 1.606-1.64 4.221 4.221 0 0 1 2.152-.597c.786.043 1.376.273 1.786.726.418.452.64 1.015.683 1.69v9.192h2.221v-7.212a4.582 4.582 0 0 1 .675-2.194 4.814 4.814 0 0 1 1.605-1.604 4.051 4.051 0 0 1 2.119-.59c.786.044 1.366.274 1.759.718.41.452.632 1.015.667 1.69v9.192h2.22V22.67c-.059-1.23-.478-2.228-1.247-2.97ZM174.413 18.923h-2.221v13.272h2.221V18.923ZM173.345 12.974a1.51 1.51 0 0 0-1.025.392 1.328 1.328 0 0 0-.452 1.016c0 .401.145.743.444 1.024.29.282.64.418 1.033.418.393 0 .735-.136 1.017-.4.29-.274.435-.624.435-1.042 0-.401-.145-.742-.427-1.007a1.476 1.476 0 0 0-1.025-.401ZM202.806 20.673a6.237 6.237 0 0 0-1.683-1.468c-.999-.615-2.05-.922-3.143-.922-1.358 0-2.597.281-3.682.845a6.35 6.35 0 0 0-2.588 2.432c-.624 1.05-.931 2.305-.931 3.73 0 1.34.299 2.552.897 3.594a6.379 6.379 0 0 0 2.451 2.45c1.025.571 2.178.861 3.434.861 1.239 0 2.4-.299 3.451-.896.683-.384 1.264-.828 1.725-1.331v1.971h2.221V18.667h-2.033l-.119 2.006Zm-4.954-.402c1.178 0 2.237.376 3.151 1.11.906.726 1.487 1.647 1.734 2.723v1.75c-.085 1.28-.572 2.304-1.486 3.123-.914.811-2.05 1.23-3.365 1.23a4.66 4.66 0 0 1-2.443-.675 5.08 5.08 0 0 1-1.794-1.818 4.892 4.892 0 0 1-.658-2.492c0-.982.214-1.86.641-2.603a4.587 4.587 0 0 1 1.742-1.733 5.103 5.103 0 0 1 2.478-.615ZM234 32.195V22.67c-.043-1.204-.47-2.194-1.264-2.953-.795-.76-1.828-1.144-3.075-1.144-1.239 0-2.383.299-3.408.896-.65.376-1.188.837-1.598 1.383l-.085-1.938h-2.007v13.273h2.22v-7.093c0-.87.205-1.665.607-2.339.41-.683.948-1.22 1.606-1.596a4.384 4.384 0 0 1 2.178-.563c.828.017 1.443.247 1.871.708.435.47.666 1.059.709 1.801v9.09H234Z" fill="#1B0056"/></svg>