<svg width="188" height="50" viewBox="0 0 188 50" fill="none" xmlns="http://www.w3.org/2000/svg">
<path d="M152.23 41.0004V49.8329H155.488C158.323 49.8329 160.093 48.0235 160.093 45.4166C160.093 42.8098 158.323 41.0004 155.488 41.0004H152.23ZM158.054 45.4166C158.054 47.0355 157.14 47.964 155.488 47.964H154.269V42.8693H155.488C157.14 42.8693 158.054 43.7978 158.054 45.4166Z" fill="#9493A0"/>
<path d="M161.433 45.4166C161.398 48.0116 163.355 50.0352 165.874 49.9995C168.393 50.0352 170.35 48.0116 170.315 45.4166C170.35 42.8217 168.393 40.7981 165.874 40.8338C163.355 40.7981 161.398 42.8217 161.433 45.4166ZM168.276 45.4166C168.276 46.9165 167.304 48.0592 165.874 48.0592C164.445 48.0592 163.472 46.9165 163.472 45.4166C163.472 43.9168 164.445 42.7741 165.874 42.7741C167.304 42.7741 168.276 43.9168 168.276 45.4166Z" fill="#9493A0"/>
<path d="M171.649 45.4166C171.613 48.0116 173.57 50.0352 176.09 49.9995C177.765 49.9995 179.148 49.1663 179.863 47.9283L178.105 46.9284C177.683 47.6426 176.968 48.0592 176.09 48.0592C174.66 48.0592 173.688 46.9165 173.688 45.4166C173.688 43.9168 174.66 42.7741 176.09 42.7741C176.968 42.7741 177.683 43.1907 178.105 43.9049L179.863 42.905C179.148 41.667 177.765 40.8338 176.09 40.8338C173.57 40.7981 171.613 42.8217 171.649 45.4166Z" fill="#9493A0"/>
<path d="M180.899 48.0116C181.497 49.2496 182.797 49.9995 184.52 49.9995C186.594 49.9995 188 48.833 188 47.2617C188 45.988 187.191 45.1548 185.68 44.7381L184.66 44.4644C183.594 44.1787 183.231 43.9525 183.231 43.4764C183.231 42.9645 183.746 42.6312 184.461 42.6312C185.246 42.6312 185.961 43.024 186.254 43.5954L187.906 42.7026C187.332 41.5123 186.043 40.8338 184.485 40.8338C182.504 40.8338 181.204 41.9884 181.204 43.5716C181.204 44.8096 182.012 45.6309 183.524 46.0475L184.543 46.3213C185.586 46.5951 185.973 46.8689 185.973 47.3569C185.973 47.8688 185.375 48.2021 184.543 48.2021C183.606 48.2021 182.891 47.7378 182.563 47.107L180.899 48.0116Z" fill="#9493A0"/>
<path d="M66.6667 16.608C69.641 16.608 72.3077 18.0521 73.7436 20.3216L70.4615 22.1783C69.641 21.0436 68.3077 20.2184 66.6667 20.2184C64 20.2184 62.1539 22.2815 62.1539 24.9635C62.1539 26.4077 62.5641 27.4393 63.3846 28.4708C64.3077 29.3992 65.3333 29.8118 66.6667 29.8118C68.3077 29.8118 69.641 29.0897 70.4615 27.8519L73.7436 29.8118C72.3077 32.0812 69.7436 33.5254 66.6667 33.5254C61.9487 33.6286 58.1539 29.8118 58.2564 25.1698C58.1539 20.3216 61.8462 16.608 66.6667 16.608Z" fill="#292F52"/>
<path d="M84.3077 16.608C89.1282 16.608 92.7179 20.2184 92.7179 24.9635C92.7179 29.7087 89.1282 33.3191 84.3077 33.3191C79.5897 33.4222 75.7949 29.6055 75.8974 24.9635C75.7949 20.3216 79.5897 16.608 84.3077 16.608ZM84.3077 20.2184C81.641 20.2184 79.7949 22.2815 79.7949 24.9635C79.7949 26.4077 80.2051 27.4393 81.0256 28.4708C81.9487 29.296 82.9743 29.8118 84.3077 29.8118C85.7436 29.8118 86.7692 29.3992 87.5897 28.4708C88.5128 27.5424 88.9231 26.4077 88.9231 24.9635C88.9231 22.2815 87.0769 20.2184 84.3077 20.2184Z" fill="#292F52"/>
<path d="M98.1539 27.8519C98.9744 29.1929 100.718 30.1213 102.769 30.1213C104.718 30.1213 106.256 29.5024 106.256 28.574C106.256 27.6456 105.641 27.2329 103.179 26.614L100.821 26.0982C97.5385 25.3762 95.8974 23.932 95.8974 21.5594C95.8974 18.5679 98.7692 16.5048 102.769 16.5048C104.308 16.5048 105.744 16.8143 106.974 17.5364C108.205 18.2585 109.128 18.9805 109.744 20.0121L106.769 21.6626C106.051 20.5279 104.308 19.7026 102.564 19.7026C100.821 19.7026 99.5897 20.3216 99.5897 21.25C99.5897 22.1784 100.205 22.591 102.667 23.1067L105.026 23.6225C108.308 24.3446 109.949 25.7888 109.949 28.1613C109.949 31.1528 106.769 33.2159 102.564 33.2159C100.821 33.2159 99.2821 32.8033 97.9487 32.0812C96.6154 31.3592 95.5897 30.4308 94.9744 29.3992L98.1539 27.8519Z" fill="#292F52"/>
<path d="M139.077 33.0096H135.077V24.3446C135.077 21.6626 133.949 20.2184 131.897 20.2184C129.846 20.2184 128.308 22.0752 128.308 24.7572V33.1128H124.308V24.4478C124.308 21.7657 123.179 20.3215 121.128 20.3215C120.103 20.3215 119.179 20.7342 118.564 21.5594C117.949 22.4878 117.538 23.5194 117.538 24.7572V33.1128H113.538V17.1237H117.538V19.3932C118.462 17.7427 120.103 16.7111 122.051 16.7111C124.513 16.7111 126.359 17.8458 127.385 19.8058C128.41 17.8458 130.256 16.7111 132.718 16.7111C136.615 16.7111 138.974 19.3932 138.974 24.0351V33.0096H139.077Z" fill="#292F52"/>
<path d="M145.436 10.1092C146.872 10.1092 147.897 11.1407 147.897 12.5849C147.897 14.0291 146.872 15.0606 145.436 15.0606C144 15.0606 142.974 14.0291 142.974 12.5849C142.974 11.1407 144 10.1092 145.436 10.1092ZM147.487 33.0096H143.487V17.1237H147.487V33.0096Z" fill="#292F52"/>
<path d="M168 17.1238V33.0096H164V30.8434C162.974 32.597 161.026 33.5254 158.872 33.5254C154.462 33.5254 151.179 29.8118 151.179 25.1699C151.077 20.5279 154.462 16.7111 158.872 16.8143C161.026 16.8143 162.974 17.7427 164 19.4963V17.3301H168V17.1238ZM159.385 20.2184C158.051 20.2184 156.923 20.631 156.103 21.6626C155.282 22.591 154.872 23.7257 154.872 25.1699C154.872 27.8519 156.718 30.0182 159.385 30.0182C162.051 30.0182 163.897 28.0582 163.897 25.1699C163.897 22.0752 162.051 20.2184 159.385 20.2184Z" fill="#292F52"/>
<path d="M188 33.0096H184V24.3446C184 21.6626 182.769 20.2184 180.41 20.2184C178.051 20.2184 176.308 21.972 176.308 24.6541V33.0096H172.308V17.1237H176.308V19.3932C177.231 17.7427 178.974 16.7111 181.333 16.7111C185.436 16.7111 188 19.3932 188 24.0351V33.0096Z" fill="#292F52"/>
<path d="M33.9752 50H16.6749C12.2978 50 8.65012 46.4066 8.65012 42.0945C8.65012 41.7864 8.33747 41.4784 8.02481 41.4784C3.54342 41.4784 0 37.885 0 33.5729V16.4271C0 12.115 3.64764 8.52156 8.02481 8.52156C8.44169 8.52156 8.65012 8.21355 8.65012 7.90554C8.65012 3.59343 12.2978 0 16.6749 0H33.9752C38.3524 0 42 3.59343 42 7.90554V8.93224C42 13.2444 38.3524 16.8378 33.9752 16.8378H17.6129C17.3002 16.8378 16.9876 17.1458 16.9876 17.4538V32.4435C16.9876 32.7515 17.3002 33.0595 17.6129 33.0595H33.871C38.2481 33.0595 41.8958 36.653 41.8958 40.9651V41.9918C42 46.4066 38.4566 50 33.9752 50ZM16.6749 3.79877C14.3821 3.79877 12.6104 5.64682 12.6104 7.80287C12.6104 10.3696 10.5261 12.3203 8.02481 12.3203C5.73201 12.3203 3.9603 14.1684 3.9603 16.3244V33.3676C3.9603 35.6263 5.83623 37.3717 8.02481 37.3717C10.6303 37.3717 12.6104 39.4251 12.6104 41.8891C12.6104 44.1478 14.4864 45.8932 16.6749 45.8932H33.9752C36.268 45.8932 38.0397 44.0452 38.0397 41.8891V40.8624C38.0397 38.6037 36.1638 36.8583 33.9752 36.8583H17.6129C15.0074 36.8583 13.0273 34.8049 13.0273 32.3409V17.4538C13.0273 14.8871 15.1117 12.9363 17.6129 12.9363H33.871C36.1638 12.9363 37.9355 11.0883 37.9355 8.93224V7.90554C37.9355 5.64682 36.0595 3.90144 33.871 3.90144H16.6749V3.79877Z" fill="url(#paint0_linear_1740_1023)"/>
<defs>
<linearGradient id="paint0_linear_1740_1023" x1="15.6507" y1="14.9337" x2="90.355" y2="97.987" gradientUnits="userSpaceOnUse">
<stop stop-color="#FF8C4A"/>
<stop offset="0.1196" stop-color="#FF7A47"/>
<stop offset="0.3592" stop-color="#FF4C40"/>
<stop offset="0.6797" stop-color="#FE0534"/>
</linearGradient>
</defs>
</svg>
