<svg width="188" height="50" viewBox="0 0 188 50" fill="none" xmlns="http://www.w3.org/2000/svg">
<path d="M151.398 41.0004V49.8329H154.606C157.399 49.8329 159.141 48.0235 159.141 45.4166C159.141 42.8098 157.399 41.0004 154.606 41.0004H151.398ZM157.133 45.4166C157.133 47.0355 156.233 47.964 154.606 47.964H153.406V42.8693H154.606C156.233 42.8693 157.133 43.7978 157.133 45.4166Z" fill="#9493A0"/>
<path d="M160.692 41.0004V49.8329H166.935V47.9759H162.689V46.3332H166.347V44.5001H162.689V42.8574H166.82V41.0004H160.692Z" fill="#9493A0"/>
<path d="M168.454 41.0004V49.8329H170.381V44.6548L172.262 48.1069H173.9L175.758 44.6905V49.8329H177.709V41.0004H175.77L173.093 45.9047L170.415 41.0004H168.454Z" fill="#9493A0"/>
<path d="M179.252 45.4166C179.218 48.0116 181.145 50.0352 183.626 49.9995C186.107 50.0352 188.034 48.0116 188 45.4166C188.034 42.8217 186.107 40.7981 183.626 40.8338C181.145 40.7981 179.218 42.8217 179.252 45.4166ZM185.992 45.4166C185.992 46.9165 185.034 48.0592 183.626 48.0592C182.218 48.0592 181.26 46.9165 181.26 45.4166C181.26 43.9168 182.218 42.7741 183.626 42.7741C185.034 42.7741 185.992 43.9168 185.992 45.4166Z" fill="#9493A0"/>
<path d="M66.6667 16.5461C69.641 16.5461 72.3077 17.9849 73.7436 20.2458L70.4616 22.0957C69.641 20.9652 68.3077 20.1431 66.6667 20.1431C64 20.1431 62.1539 22.1985 62.1539 24.8705C62.1539 26.3093 62.5641 27.337 63.3846 28.3647C64.3077 29.2897 65.3333 29.7008 66.6667 29.7008C68.3077 29.7008 69.641 28.9814 70.4616 27.7481L73.7436 29.7008C72.3077 31.9617 69.7436 33.4005 66.6667 33.4005C61.9487 33.5033 58.1539 29.7008 58.2564 25.0761C58.1539 20.2458 61.8462 16.5461 66.6667 16.5461Z" fill="#292F52"/>
<path d="M84.3077 16.5461C89.1282 16.5461 92.7179 20.1431 92.7179 24.8705C92.7179 29.598 89.1282 33.195 84.3077 33.195C79.5897 33.2978 75.7949 29.4952 75.8974 24.8705C75.7949 20.2458 79.5897 16.5461 84.3077 16.5461ZM84.3077 20.1431C81.641 20.1431 79.7949 22.1985 79.7949 24.8705C79.7949 26.3093 80.2051 27.337 81.0256 28.3647C81.9487 29.1869 82.9743 29.7008 84.3077 29.7008C85.7436 29.7008 86.7692 29.2897 87.5897 28.3647C88.5128 27.4398 88.9231 26.3093 88.9231 24.8705C88.9231 22.1985 87.0769 20.1431 84.3077 20.1431Z" fill="#292F52"/>
<path d="M98.1539 27.7482C98.9744 29.0842 100.718 30.0091 102.769 30.0091C104.718 30.0091 106.256 29.3925 106.256 28.4676C106.256 27.5426 105.641 27.1315 103.179 26.5149L100.821 26.0011C97.5385 25.2817 95.8974 23.8429 95.8974 21.4791C95.8974 18.4988 98.7692 16.4434 102.769 16.4434C104.308 16.4434 105.744 16.7517 106.974 17.4711C108.205 18.1905 109.128 18.9099 109.744 19.9376L106.769 21.5819C106.051 20.4514 104.308 19.6293 102.564 19.6293C100.821 19.6293 99.5898 20.2459 99.5898 21.1708C99.5898 22.0958 100.205 22.5068 102.667 23.0207L105.026 23.5346C108.308 24.254 109.949 25.6927 109.949 28.0565C109.949 31.0368 106.769 33.0923 102.564 33.0923C100.821 33.0923 99.2821 32.6812 97.9487 31.9618C96.6154 31.2424 95.5897 30.3174 94.9744 29.2897L98.1539 27.7482Z" fill="#292F52"/>
<path d="M139.077 32.8867H135.077V24.2539C135.077 21.5819 133.949 20.1431 131.897 20.1431C129.846 20.1431 128.308 21.993 128.308 24.665V32.9895H124.308V24.3567C124.308 21.6846 123.18 20.2458 121.128 20.2458C120.103 20.2458 119.18 20.6569 118.564 21.4791C117.949 22.404 117.539 23.4318 117.539 24.665V32.9895H113.539V17.06H117.539V19.3209C118.462 17.6766 120.103 16.6489 122.051 16.6489C124.513 16.6489 126.359 17.7793 127.385 19.732C128.41 17.7793 130.256 16.6489 132.718 16.6489C136.615 16.6489 138.974 19.3209 138.974 23.9456V32.8867H139.077Z" fill="#292F52"/>
<path d="M145.436 10.0715C146.872 10.0715 147.897 11.0992 147.897 12.538C147.897 13.9768 146.872 15.0045 145.436 15.0045C144 15.0045 142.974 13.9768 142.974 12.538C142.974 11.0992 144 10.0715 145.436 10.0715ZM147.487 32.8867H143.487V17.06H147.487V32.8867Z" fill="#292F52"/>
<path d="M168 17.06V32.8867H164V30.7285C162.974 32.4756 161.026 33.4006 158.872 33.4006C154.462 33.4006 151.18 29.7008 151.18 25.0761C151.077 20.4514 154.462 16.6489 158.872 16.7517C161.026 16.7517 162.974 17.6766 164 19.4237V17.2655H168V17.06ZM159.385 20.1431C158.051 20.1431 156.923 20.5542 156.103 21.5819C155.282 22.5068 154.872 23.6373 154.872 25.0761C154.872 27.7482 156.718 29.9064 159.385 29.9064C162.051 29.9064 163.897 27.9537 163.897 25.0761C163.897 21.993 162.051 20.1431 159.385 20.1431Z" fill="#292F52"/>
<path d="M188 32.8867H184V24.2539C184 21.5819 182.769 20.1431 180.41 20.1431C178.051 20.1431 176.308 21.8902 176.308 24.5622V32.8867H172.308V17.06H176.308V19.3209C177.231 17.6766 178.974 16.6489 181.333 16.6489C185.436 16.6489 188 19.3209 188 23.9456V32.8867Z" fill="#292F52"/>
<path d="M33.9752 50H16.6749C12.2978 50 8.65012 46.4066 8.65012 42.0945C8.65012 41.7864 8.33747 41.4784 8.02481 41.4784C3.54342 41.4784 0 37.885 0 33.5729V16.4271C0 12.115 3.64764 8.52156 8.02481 8.52156C8.44169 8.52156 8.65012 8.21355 8.65012 7.90554C8.65012 3.59343 12.2978 0 16.6749 0H33.9752C38.3524 0 42 3.59343 42 7.90554V8.93224C42 13.2444 38.3524 16.8378 33.9752 16.8378H17.6129C17.3002 16.8378 16.9876 17.1458 16.9876 17.4538V32.4435C16.9876 32.7515 17.3002 33.0595 17.6129 33.0595H33.871C38.2481 33.0595 41.8958 36.653 41.8958 40.9651V41.9918C42 46.4066 38.4566 50 33.9752 50ZM16.6749 3.79877C14.3821 3.79877 12.6104 5.64682 12.6104 7.80287C12.6104 10.3696 10.5261 12.3203 8.02481 12.3203C5.73201 12.3203 3.9603 14.1684 3.9603 16.3244V33.3676C3.9603 35.6263 5.83623 37.3717 8.02481 37.3717C10.6303 37.3717 12.6104 39.4251 12.6104 41.8891C12.6104 44.1478 14.4864 45.8932 16.6749 45.8932H33.9752C36.268 45.8932 38.0397 44.0452 38.0397 41.8891V40.8624C38.0397 38.6037 36.1638 36.8583 33.9752 36.8583H17.6129C15.0074 36.8583 13.0273 34.8049 13.0273 32.3409V17.4538C13.0273 14.8871 15.1117 12.9363 17.6129 12.9363H33.871C36.1638 12.9363 37.9355 11.0883 37.9355 8.93224V7.90554C37.9355 5.64682 36.0595 3.90144 33.871 3.90144H16.6749V3.79877Z" fill="url(#paint0_linear_1740_1114)"/>
<defs>
<linearGradient id="paint0_linear_1740_1114" x1="15.6507" y1="14.9337" x2="90.355" y2="97.987" gradientUnits="userSpaceOnUse">
<stop stop-color="#FF8C4A"/>
<stop offset="0.1196" stop-color="#FF7A47"/>
<stop offset="0.3592" stop-color="#FF4C40"/>
<stop offset="0.6797" stop-color="#FE0534"/>
</linearGradient>
</defs>
</svg>
