<svg width="201" height="28" viewBox="0 0 201 28" fill="none" xmlns="http://www.w3.org/2000/svg">
<path d="M20.9198 1.80198C21.4101 1.80198 21.8034 2.19392 21.8034 2.6719V6.45271C21.8034 6.93547 21.4053 7.32264 20.9198 7.32264H8.32615C7.83581 7.32264 7.44256 7.71458 7.44256 8.19256V19.7883C7.44256 20.2711 7.84066 20.6582 8.32615 20.6582H20.9198C21.4101 20.6582 21.8034 21.0502 21.8034 21.5282V25.309C21.8034 25.7917 21.4053 26.1789 20.9198 26.1789H7.50568C7.01533 26.1789 6.62208 25.787 6.62208 25.309V22.336C6.62208 21.8532 6.22398 21.466 5.73849 21.466H2.71874C2.2284 21.466 1.83515 21.0741 1.83515 20.5961V7.38955C1.83515 6.90679 2.23325 6.51963 2.71874 6.51963H5.73849C6.22884 6.51963 6.62208 6.12769 6.62208 5.64971V2.67668C6.62208 2.19392 7.02019 1.80676 7.50568 1.80676H20.9198V1.80198ZM20.9198 0H7.50568C6.00551 0 4.78693 1.19973 4.78693 2.67668V4.71765H2.71874C1.21858 4.71765 0 5.91738 0 7.39433V20.6057C0 22.0826 1.21858 23.2823 2.71874 23.2823H4.79179V25.3233C4.79179 26.8003 6.01037 28 7.51053 28H20.9295C22.4296 28 23.6482 26.8003 23.6482 25.3233V21.5425C23.6482 20.0656 22.4296 18.8658 20.9295 18.8658H9.27286V9.1294H20.9198C22.4199 9.1294 23.6385 7.92967 23.6385 6.45271V2.67668C23.6385 1.19973 22.4199 0 20.9198 0Z" fill="#E3431A"/>
<path d="M32.6929 11.7535C33.1055 11.5097 33.5619 11.3855 34.062 11.3855C34.7319 11.3855 35.3582 11.6101 35.9311 12.0451L36.0913 12.1646L36.7904 11.2803L36.6399 11.156C35.9214 10.5777 35.0378 10.2813 34.0086 10.2813C33.3046 10.2813 32.6443 10.4486 32.0472 10.7832C31.4452 11.1178 30.9645 11.5814 30.6101 12.1693C30.2606 12.7573 30.0809 13.4217 30.0809 14.153C30.0809 14.8795 30.2557 15.5487 30.6004 16.1318C30.9451 16.7197 31.4306 17.1881 32.0375 17.5179C32.6443 17.8525 33.3337 18.0198 34.0814 18.0198C34.5426 18.0198 34.9941 17.9433 35.4359 17.7952C35.8777 17.6422 36.2758 17.4271 36.6205 17.1499L36.7856 17.0208L36.0476 16.2083L35.902 16.3182C35.3679 16.7101 34.7756 16.9061 34.1396 16.9061C33.6153 16.9061 33.1395 16.7818 32.7171 16.5381C32.2948 16.2943 31.9549 15.9549 31.7122 15.5391C31.4694 15.1233 31.3432 14.6548 31.3432 14.153C31.3432 13.6511 31.4646 13.1827 31.7122 12.7573C31.9452 12.3414 32.2802 12.0021 32.6929 11.7535Z" fill="#1B0056"/>
<path d="M51.1949 10.7402C50.5832 10.396 49.8986 10.2192 49.1558 10.2192C48.413 10.2192 47.7334 10.396 47.1168 10.7402C46.5051 11.0843 46.0147 11.5671 45.6652 12.1646C45.3108 12.762 45.136 13.4216 45.136 14.1243C45.136 14.8651 45.3108 15.5391 45.6555 16.1318C46.0002 16.7245 46.4856 17.1929 47.0925 17.5275C47.6994 17.8621 48.3888 18.0294 49.1364 18.0294C49.8889 18.0294 50.5783 17.8525 51.1852 17.5084C51.7921 17.1642 52.2775 16.6862 52.6271 16.0983C52.9815 15.5056 53.1563 14.8412 53.1563 14.1291C53.1563 13.4264 52.9815 12.7668 52.6368 12.1693C52.2921 11.5671 51.8066 11.0843 51.1949 10.7402ZM49.1364 16.9109C48.6412 16.9109 48.1752 16.7866 47.7576 16.5428C47.3401 16.2991 47.0051 15.9597 46.7624 15.5343C46.5196 15.1089 46.3983 14.6405 46.3983 14.1386C46.3983 13.6606 46.5196 13.2018 46.7575 12.7764C46.9954 12.351 47.3304 12.002 47.7479 11.7392C48.1654 11.4811 48.6315 11.3472 49.1413 11.3472C49.6365 11.3472 50.1025 11.4715 50.5201 11.7153C50.9376 11.959 51.2726 12.3032 51.5153 12.7286C51.7581 13.1588 51.8794 13.632 51.8794 14.1338C51.8794 14.6357 51.7581 15.1041 51.5153 15.5295C51.2726 15.9549 50.9376 16.2943 50.5201 16.5381C50.0977 16.7914 49.6365 16.9109 49.1364 16.9109Z" fill="#1B0056"/>
<path d="M66.3859 14.282C66.0169 14 65.4781 13.7419 64.7935 13.522C64.2643 13.3356 63.8711 13.154 63.6186 12.9771C63.405 12.829 63.3031 12.6091 63.3031 12.3032C63.3031 12.0116 63.4196 11.7918 63.6623 11.6292C63.9293 11.4524 64.2158 11.3663 64.5362 11.3663C64.8178 11.3759 65.1042 11.4333 65.3809 11.5336C65.6431 11.6292 65.8519 11.7774 66.0121 11.9877L66.1869 12.2172L66.8131 11.2469L66.6966 11.1369C66.114 10.5729 65.3421 10.2909 64.4148 10.2909C63.7351 10.2909 63.1623 10.4869 62.7205 10.8693C62.269 11.2612 62.0408 11.7774 62.0408 12.4131C62.0408 12.958 62.2156 13.4025 62.57 13.7323C62.9001 14.0478 63.371 14.3059 63.973 14.5067C64.4537 14.6596 64.8081 14.7839 65.0168 14.8699C65.2062 14.9464 65.3809 15.0707 65.5314 15.2332C65.6674 15.3814 65.7354 15.5821 65.7354 15.8498C65.7354 16.2274 65.6091 16.4951 65.347 16.6671C65.0654 16.8535 64.711 16.9491 64.2886 16.9491C63.9536 16.9491 63.6235 16.8774 63.3079 16.7436C62.9923 16.605 62.7205 16.4186 62.4923 16.1844L62.3224 16.0123L61.6912 16.887L61.7883 17.0017C62.0796 17.3506 62.4632 17.6135 62.9244 17.7808C63.3759 17.9433 63.8517 18.0246 64.3371 18.0246C65.177 18.0246 65.8373 17.8047 66.2937 17.3745C66.7549 16.9396 66.9879 16.366 66.9879 15.6682C66.9976 15.0563 66.7937 14.5879 66.3859 14.282Z" fill="#1B0056"/>
<path d="M87.1698 11.0318C86.728 10.6111 86.1405 10.4008 85.422 10.4008C84.7811 10.4008 84.1791 10.5538 83.6305 10.8597C83.2179 11.0891 82.878 11.3855 82.6061 11.7535C82.4702 11.4237 82.242 11.1369 81.9216 10.9027C81.475 10.5729 80.9361 10.4056 80.3195 10.4056C79.6544 10.4056 79.0281 10.5729 78.4601 10.9027C78.0911 11.1178 77.7755 11.3855 77.5279 11.7057L77.4745 10.6064H76.3336V18.0389H77.5959V14.0526C77.5959 13.5985 77.7124 13.1683 77.9357 12.7812C78.1591 12.394 78.4698 12.0833 78.8485 11.8634C79.2271 11.6436 79.6447 11.5289 80.0719 11.5289C80.5185 11.5528 80.8535 11.6818 81.0866 11.9351C81.3245 12.1885 81.4507 12.5039 81.475 12.8815V18.0294H82.7372V13.9904C82.7615 13.5459 82.8877 13.1349 83.1208 12.762C83.3538 12.3892 83.6597 12.0881 84.0335 11.8634C84.4025 11.6436 84.8103 11.5336 85.2375 11.5336C85.6842 11.5575 86.0143 11.6866 86.2376 11.9351C86.4707 12.1885 86.5969 12.5039 86.6163 12.8815V18.0294H87.8786V12.6951C87.8446 12.0068 87.6067 11.4476 87.1698 11.0318Z" fill="#1B0056"/>
<path d="M99.1322 10.5968H97.8699V18.0294H99.1322V10.5968Z" fill="#1B0056"/>
<path d="M98.5254 7.26528C98.3021 7.26528 98.1079 7.34176 97.9428 7.48515C97.7729 7.63811 97.6855 7.8293 97.6855 8.05395C97.6855 8.2786 97.768 8.46979 97.9379 8.62752C98.103 8.78526 98.3021 8.86173 98.5254 8.86173C98.7487 8.86173 98.9429 8.78526 99.1031 8.63708C99.2682 8.48413 99.3507 8.28816 99.3507 8.05395C99.3507 7.8293 99.2682 7.63811 99.108 7.48993C98.9429 7.34176 98.7487 7.26528 98.5254 7.26528Z" fill="#1B0056"/>
<path d="M115.27 11.5766C115.013 11.2564 114.692 10.9792 114.313 10.7545C113.745 10.4104 113.148 10.2383 112.527 10.2383C111.755 10.2383 111.051 10.396 110.434 10.7115C109.813 11.027 109.318 11.4858 108.963 12.0737C108.609 12.6617 108.434 13.3643 108.434 14.1625C108.434 14.9129 108.604 15.5917 108.944 16.1748C109.284 16.7627 109.75 17.2216 110.337 17.5466C110.92 17.8668 111.575 18.0294 112.289 18.0294C112.993 18.0294 113.653 17.8621 114.25 17.5275C114.639 17.3124 114.969 17.0638 115.231 16.7818V17.886H116.493V10.4534H115.338L115.27 11.5766ZM112.454 11.352C113.124 11.352 113.726 11.5623 114.246 11.9734C114.76 12.3796 115.09 12.8959 115.231 13.4981V14.478C115.183 15.1949 114.906 15.7685 114.386 16.2274C113.867 16.6815 113.221 16.9157 112.473 16.9157C111.978 16.9157 111.512 16.7914 111.085 16.5381C110.658 16.2847 110.318 15.9454 110.065 15.52C109.818 15.0993 109.692 14.6309 109.692 14.1243C109.692 13.5746 109.813 13.0823 110.056 12.6664C110.298 12.2506 110.633 11.9256 111.046 11.6961C111.473 11.4667 111.944 11.352 112.454 11.352Z" fill="#1B0056"/>
<path d="M133 18.0294V12.6951C132.976 12.0212 132.733 11.4667 132.281 11.0413C131.83 10.6159 131.243 10.4008 130.534 10.4008C129.83 10.4008 129.179 10.5681 128.597 10.9027C128.228 11.113 127.922 11.3711 127.689 11.677L127.64 10.592H126.499V18.0246H127.762V14.0526C127.762 13.565 127.878 13.1205 128.106 12.7429C128.339 12.3605 128.645 12.0594 129.019 11.8491C129.398 11.6388 129.815 11.5336 130.257 11.5336C130.728 11.5432 131.077 11.6722 131.32 11.9304C131.568 12.1932 131.699 12.523 131.723 12.9389V18.0294H133V18.0294Z" fill="#1B0056"/>
<line x1="146.5" y1="28" x2="146.5" y2="2.18557e-08" stroke="#7C7C7C"/>
<path d="M162.155 9.8H165.4C166.214 9.8 166.936 9.96133 167.567 10.284C168.198 10.6067 168.685 11.0613 169.03 11.648C169.382 12.2273 169.558 12.8947 169.558 13.65C169.558 14.4053 169.382 15.0763 169.03 15.663C168.685 16.2423 168.198 16.6933 167.567 17.016C166.936 17.3387 166.214 17.5 165.4 17.5H162.155V9.8ZM165.334 16.543C165.957 16.543 166.504 16.422 166.973 16.18C167.45 15.938 167.816 15.6007 168.073 15.168C168.33 14.728 168.458 14.222 168.458 13.65C168.458 13.078 168.33 12.5757 168.073 12.143C167.816 11.703 167.45 11.362 166.973 11.12C166.504 10.878 165.957 10.757 165.334 10.757H163.255V16.543H165.334ZM176.919 17.588C176.142 17.588 175.441 17.4193 174.818 17.082C174.195 16.7373 173.703 16.2643 173.344 15.663C172.992 15.0617 172.816 14.3907 172.816 13.65C172.816 12.9093 172.992 12.2383 173.344 11.637C173.703 11.0357 174.195 10.5663 174.818 10.229C175.441 9.88433 176.142 9.712 176.919 9.712C177.689 9.712 178.386 9.88433 179.009 10.229C179.632 10.5663 180.12 11.0357 180.472 11.637C180.824 12.231 181 12.902 181 13.65C181 14.398 180.824 15.0727 180.472 15.674C180.12 16.268 179.632 16.7373 179.009 17.082C178.386 17.4193 177.689 17.588 176.919 17.588ZM176.919 16.609C177.484 16.609 177.99 16.4807 178.437 16.224C178.892 15.9673 179.247 15.6153 179.504 15.168C179.768 14.7133 179.9 14.2073 179.9 13.65C179.9 13.0927 179.768 12.5903 179.504 12.143C179.247 11.6883 178.892 11.3327 178.437 11.076C177.99 10.8193 177.484 10.691 176.919 10.691C176.354 10.691 175.841 10.8193 175.379 11.076C174.924 11.3327 174.565 11.6883 174.301 12.143C174.044 12.5903 173.916 13.0927 173.916 13.65C173.916 14.2073 174.044 14.7133 174.301 15.168C174.565 15.6153 174.924 15.9673 175.379 16.224C175.841 16.4807 176.354 16.609 176.919 16.609ZM188.324 17.588C187.554 17.588 186.858 17.4193 186.234 17.082C185.618 16.7373 185.134 16.268 184.782 15.674C184.43 15.0727 184.254 14.398 184.254 13.65C184.254 12.902 184.43 12.231 184.782 11.637C185.134 11.0357 185.622 10.5663 186.245 10.229C186.869 9.88433 187.565 9.712 188.335 9.712C188.937 9.712 189.487 9.81467 189.985 10.02C190.484 10.218 190.909 10.515 191.261 10.911L190.546 11.604C189.967 10.9953 189.245 10.691 188.379 10.691C187.807 10.691 187.29 10.8193 186.828 11.076C186.366 11.3327 186.003 11.6883 185.739 12.143C185.483 12.5903 185.354 13.0927 185.354 13.65C185.354 14.2073 185.483 14.7133 185.739 15.168C186.003 15.6153 186.366 15.9673 186.828 16.224C187.29 16.4807 187.807 16.609 188.379 16.609C189.237 16.609 189.96 16.301 190.546 15.685L191.261 16.378C190.909 16.774 190.48 17.0747 189.974 17.28C189.476 17.4853 188.926 17.588 188.324 17.588ZM197.242 17.588C196.663 17.588 196.102 17.5 195.559 17.324C195.024 17.1407 194.602 16.906 194.294 16.62L194.701 15.762C194.994 16.026 195.368 16.2423 195.823 16.411C196.285 16.5723 196.758 16.653 197.242 16.653C197.88 16.653 198.357 16.5467 198.672 16.334C198.987 16.114 199.145 15.8243 199.145 15.465C199.145 15.201 199.057 14.9883 198.881 14.827C198.712 14.6583 198.5 14.53 198.243 14.442C197.994 14.354 197.638 14.255 197.176 14.145C196.597 14.0057 196.127 13.8663 195.768 13.727C195.416 13.5877 195.112 13.375 194.855 13.089C194.606 12.7957 194.481 12.4033 194.481 11.912C194.481 11.5013 194.587 11.131 194.8 10.801C195.02 10.471 195.35 10.207 195.79 10.009C196.23 9.811 196.776 9.712 197.429 9.712C197.884 9.712 198.331 9.77067 198.771 9.888C199.211 10.0053 199.589 10.174 199.904 10.394L199.541 11.274C199.218 11.0687 198.874 10.9147 198.507 10.812C198.14 10.702 197.781 10.647 197.429 10.647C196.806 10.647 196.336 10.7607 196.021 10.988C195.713 11.2153 195.559 11.5087 195.559 11.868C195.559 12.132 195.647 12.3483 195.823 12.517C195.999 12.6783 196.215 12.8067 196.472 12.902C196.736 12.99 197.092 13.0853 197.539 13.188C198.118 13.3273 198.584 13.4667 198.936 13.606C199.288 13.7453 199.589 13.958 199.838 14.244C200.095 14.53 200.223 14.915 200.223 15.399C200.223 15.8023 200.113 16.1727 199.893 16.51C199.673 16.84 199.339 17.104 198.892 17.302C198.445 17.4927 197.895 17.588 197.242 17.588Z" fill="#7C7C7C"/>
</svg>
